<?xml version="1.0" encoding="UTF-8" standalone="no"?>
<svg width="968px" height="818px" viewBox="0 0 968 818" version="1.1" xmlns="http://www.w3.org/2000/svg" xmlns:xlink="http://www.w3.org/1999/xlink" xmlns:sketch="http://www.bohemiancoding.com/sketch/ns">
    <!-- Generator: Sketch 3.0.3 (7891) - http://www.bohemiancoding.com/sketch -->
    <title>map</title>
    <desc>Created with Sketch.</desc>
    <defs>
        <path d="M3.99075534,0 C1.78672203,0 0,1.78980598 0,3.99917782 L0,741.389667 C0,743.598352 1.7919727,745.388845 3.99075534,745.388845 L675.931034,745.388845 L675.931034,767.73315 C675.931034,769.943026 677.718124,771.734485 679.930867,771.734485 L813.299735,771.734485 L813.299735,813.9953 C813.299735,816.207035 815.090561,818 817.298838,818 L963.998389,818 C966.207033,818 967.997493,816.20631 967.997493,813.997822 L967.997493,513.274247 C967.997493,511.063905 966.328991,508.614805 964.27728,507.806585 L899.944164,482.464183 C897.889547,481.654818 896.223951,479.211716 896.223951,476.996705 L896.223951,459.297629 C896.223951,457.087389 894.428218,455.295635 892.22328,455.295635 L762.191446,455.295635 C759.981936,455.295635 758.190774,453.508546 758.190774,451.305012 L758.190774,445.616446 C758.190774,443.412485 759.984126,441.625822 762.189865,441.625822 L764.014228,441.625822 C768.433987,441.625822 772.01691,438.052557 772.01691,433.633351 L772.01691,310.711307 C772.01691,306.297187 768.438356,302.718836 764.014228,302.718836 L762.189865,302.718836 C759.981228,302.718836 758.190774,300.919679 758.190774,298.712425 L758.190774,292.744186 C758.190774,290.531506 759.981308,288.737775 762.189768,288.737775 L845.887092,288.737775 C848.095676,288.737775 849.886087,286.947811 849.886087,284.730539 L849.886087,271.961675 C849.886087,269.748539 848.10773,267.757365 845.905089,267.513273 L679.912032,249.118306 C677.713388,248.874657 674.150592,248.581318 671.941488,248.462426 L560.525355,242.466089 C558.32199,242.347506 556.535809,240.461441 556.535809,238.254915 L556.535809,235.825609 L671.924401,235.825609 C674.137204,235.825609 675.931034,234.029522 675.931034,231.831363 L675.931034,3.99424614 C675.931034,1.78828491 674.139062,0 671.940279,0 L3.99075534,0 Z M100.137931,335.42498 L100.137931,422.17282 L188.721485,422.17282 L188.721485,335.42498 L100.137931,335.42498 Z M511.9041,288.516889 C507.483118,288.516889 503.899204,292.103121 503.899204,296.518733 L503.899204,451.580843 C503.899204,453.793273 505.693853,455.586803 507.900948,455.586803 L729.059265,455.586803 C731.269366,455.586803 733.061008,453.796382 733.061008,451.592481 L733.061008,445.44444 C733.061008,443.238437 731.280134,441.450118 729.065677,441.450118 L726.305553,441.450118 C721.882597,441.450118 718.297082,437.864778 718.297082,433.456042 L718.297082,310.067825 C718.297082,305.652819 721.871017,302.073749 726.305553,302.073749 L729.065677,302.073749 C731.272237,302.073749 733.061008,300.273503 733.061008,298.079568 L733.061008,292.51107 C733.061008,290.305145 731.266359,288.516889 729.059265,288.516889 L511.9041,288.516889 Z M814.088159,550.045562 C811.880139,550.045562 810.090186,551.842526 810.090186,554.043231 L810.090186,618.016471 C810.090186,620.224322 811.879689,622.01414 814.088159,622.01414 L823.423778,622.01414 C825.631797,622.01414 827.421751,620.217176 827.421751,618.016471 L827.421751,554.043231 C827.421751,551.835379 825.632248,550.045562 823.423778,550.045562 L814.088159,550.045562 Z" id="path-1"></path>
        <rect id="path-2" x="100.779841" y="673.420267" width="52.6366048" height="71.9685782" rx="4"></rect>
        <rect id="path-3" x="0" y="0" width="51.994695" height="71.9685782" rx="4"></rect>
        <rect id="path-4" x="396.700265" y="0" width="51.994695" height="71.9685782"></rect>
        <rect id="path-5" x="444.843501" y="0" width="51.994695" height="71.9685782"></rect>
        <rect id="path-6" x="344.06366" y="686.271799" width="110.408488" height="59.1170463" rx="4"></rect>
        <rect id="path-7" x="0" y="686.271799" width="103.34748" height="59.1170463" rx="4"></rect>
        <rect id="path-8" x="451.904509" y="673.420267" width="71.8938992" height="71.9685782" rx="4"></rect>
        <rect id="path-9" x="150.206897" y="673.420267" width="50.0689655" height="71.9685782" rx="4"></rect>
        <rect id="path-10" x="197.708223" y="673.420267" width="53.9204244" height="71.9685782" rx="4"></rect>
        <rect id="path-11" x="197.708223" y="0" width="201.559682" height="71.9685782"></rect>
        <rect id="path-12" x="249.061008" y="686.271799" width="97.5702918" height="59.1170463" rx="4"></rect>
        <rect id="path-13" x="521.230769" y="673.420267" width="74.4615385" height="71.9685782" rx="4"></rect>
        <rect id="path-14" x="813.299735" y="771.734485" width="50.7108753" height="46.2655145" rx="4"></rect>
        <rect id="path-15" x="813.299735" y="728.039277" width="50.7108753" height="46.2655145" rx="4"></rect>
        <path id="path-16" d="M679.637948,713.205995 C677.590676,714.026004 675.931034,716.476309 675.931034,718.690614 L675.931034,767.734624 C675.931034,769.943686 677.72585,771.73455 679.930813,771.734629 L815.867374,771.739506 L815.867374,662.633021 C815.867374,660.428292 814.198337,659.309517 812.160461,660.125763 L679.637948,713.205995 Z"></path>
        <rect id="path-17" x="0" y="294.942655" width="100.137931" height="152.290652" rx="4"></rect>
        <rect id="path-18" x="188.721485" y="294.942655" width="200.917772" height="152.290652" rx="4"></rect>
        <rect id="path-19" x="97.5702918" y="294.942655" width="48.1432361" height="41.1249018"></rect>
        <rect id="path-20" x="143.145889" y="294.942655" width="48.1432361" height="41.1249018"></rect>
        <rect id="path-21" x="48.7851459" y="0" width="56.4880637" height="71.9685782"></rect>
        <rect id="path-22" x="241.35809" y="134.298507" width="39.1564987" height="43.6952082" rx="4"></rect>
        <rect id="path-23" x="241.35809" y="175.423409" width="39.1564987" height="43.6952082" rx="4"></rect>
        <rect id="path-24" x="241.35809" y="521.129615" width="39.1564987" height="43.6952082" rx="4"></rect>
        <rect id="path-25" x="241.35809" y="562.254517" width="39.1564987" height="43.6952082" rx="4"></rect>
        <rect id="path-26" x="553.96817" y="206.267086" width="42.3660477" height="29.5585232" rx="4"></rect>
        <rect id="path-27" x="573.225464" y="475.506677" width="50.7108753" height="69.3982718"></rect>
        <rect id="path-28" x="622.01061" y="475.506677" width="50.7108753" height="69.3982718" rx="4"></rect>
        <path id="path-29" d="M788.408657,475.506677 C786.202355,475.506677 784.413793,477.296362 784.413793,479.497653 L784.413793,492.088192 C784.413793,494.292347 786.044776,496.815097 788.062442,497.725503 L872.924631,536.016809 L896.196369,475.506677 L788.408657,475.506677 Z"></path>
        <path id="path-30" d="M963.747119,507.326533 C965.767715,508.224967 967.405732,510.740011 967.405732,512.952857 L967.405732,561.036102 C967.405732,563.245002 965.618399,565.035669 963.412083,565.035669 L948.621614,565.035669 C946.415983,565.035669 942.969375,564.367506 940.926229,563.544426 L870.998902,535.374233 L893.62873,476.149254 L963.747119,507.326533 Z"></path>
        <path id="path-31" d="M513.675711,475.506677 C511.466948,475.506677 510.78511,476.908616 512.159203,478.646116 L562.076873,541.76551 C563.448091,543.499374 566.352073,544.904949 568.551797,544.904949 L575.793103,544.904949 L575.793103,475.506677 L513.675711,475.506677 Z"></path>
        <rect id="path-32" x="593.766578" y="206.267086" width="42.3660477" height="29.5585232"></rect>
        <rect id="path-33" x="633.564987" y="206.267086" width="42.3660477" height="29.5585232" rx="4"></rect>
        <path id="path-34" d="M589.27321,244.179104 L589.27321,270.524745 L671.925146,270.524745 C674.137537,270.524745 675.931034,268.736864 675.931034,266.517557 L675.931034,252.684328 C675.931034,250.471219 674.140954,248.584225 671.93948,248.469956 L589.27321,244.179104 Z"></path>
        <rect id="path-35" x="102.70557" y="0" width="97.5702918" height="71.9685782"></rect>
        <rect id="path-36" x="492.986737" y="0" width="81.5225464" height="71.9685782" rx="4"></rect>
        <rect id="path-37" x="571.941645" y="0" width="103.98939" height="50.1209741" rx="4"></rect>
    </defs>
    <g id="Page-1" stroke="none" stroke-width="1" fill="none" fill-rule="evenodd" sketch:type="MSPage">
        <g id="Desktop-HD" sketch:type="MSArtboardGroup" transform="translate(-298.000000, -122.000000)">
            <g id="map" sketch:type="MSLayerGroup" transform="translate(298.000000, 122.000000)">
                <g id="Rectangle-2">
                    <use stroke="none" fill="#FFFFFF" fill-rule="evenodd" sketch:type="MSShapeGroup" xlink:href="#path-1"></use>
                    <use stroke="none" fill="none" xlink:href="#path-1"></use>
                    <use stroke-opacity="0.15" stroke="#2F3440" stroke-width="4" fill="none" xlink:href="#path-1"></use>
                </g>
                <rect id="Rectangle-86" fill="#E0E1E3" sketch:type="MSShapeGroup" x="157.267905" y="422.17282" width="2.56763926" height="24.4179104" rx="5"></rect>
                <rect id="Rectangle-87" fill="#E0E1E3" sketch:type="MSShapeGroup" x="127.098143" y="422.17282" width="2.56763926" height="24.4179104" rx="5"></rect>
                <g id="Rectangle-44">
                    <use stroke="none" fill="#FFFFFF" fill-rule="evenodd" sketch:type="MSShapeGroup" xlink:href="#path-2"></use>
                    <use stroke="none" fill="none" xlink:href="#path-2"></use>
                    <use stroke="#E0E1E3" stroke-width="4" fill="none" xlink:href="#path-2"></use>
                </g>
                <text id="ELEVATORS" sketch:type="MSTextLayer" transform="translate(745.578249, 372.768657) rotate(-90.000000) translate(-745.578249, -372.768657) " font-family="Helvetica Neue" font-size="10.9565217" font-weight="420" fill="#E0E1E3">
                    <tspan x="712.519894" y="377.268657">ELEVATORS</tspan>
                </text>
                <text id="KITCHEN" sketch:type="MSTextLayer" transform="translate(475.976127, 372.768657) rotate(-90.000000) translate(-475.976127, -372.768657) " font-family="Helvetica Neue" font-size="10.9565217" font-weight="420" fill="#E0E1E3">
                    <tspan x="450.62069" y="377.268657">KITCHEN</tspan>
                </text>
                <text id="COFFEE-BAR" sketch:type="MSTextLayer" font-family="Helvetica Neue" font-size="10.9565217" font-weight="420" fill="#E0E1E3">
                    <tspan x="584.137931" y="567.471328">COFFEE BAR</tspan>
                </text>
                <text id="LAST-UNICORN" sketch:type="MSTextLayer" transform="translate(695.830239, 516.705813) rotate(-90.000000) translate(-695.830239, -516.705813) " font-family="Helvetica Neue" font-size="10.9565217" font-weight="420" fill="#E0E1E3">
                    <tspan x="652.822281" y="521.205813">LAST UNICORN</tspan>
                </text>
                <text id="JUMBOTRON" sketch:type="MSTextLayer" transform="translate(794.684350, 585.461508) rotate(-90.000000) translate(-794.684350, -585.461508) " font-family="Helvetica Neue" font-size="10.9565217" font-weight="420" fill="#E0E1E3">
                    <tspan x="757.453581" y="589.961508">JUMBOTRON</tspan>
                </text>
                <text id="RENTED" sketch:type="MSTextLayer" font-family="Helvetica Neue" font-size="11.3478261" font-weight="420" sketch:alignment="middle" fill="#E0E1E3">
                    <tspan x="874.046685" y="663.857816">RENTED</tspan>
                    <tspan x="881.610011" y="676.857816">AREA</tspan>
                </text>
                <text id="COUCH" sketch:type="MSTextLayer" font-family="Helvetica Neue" font-size="10.9565217" font-weight="420" fill="#E0E1E3">
                    <tspan x="614.949602" y="717.191673">COUCH</tspan>
                </text>
                <text id="CAVES" sketch:type="MSTextLayer" font-family="Helvetica Neue" font-size="10.9565217" font-weight="420" fill="#E0E1E3">
                    <tspan x="595.050398" y="198.632364">CAVES</tspan>
                </text>
                <text id="ORIGAMI-PANTS" sketch:type="MSTextLayer" font-family="Helvetica Neue" font-size="10.9565217" font-weight="420" fill="#E0E1E3">
                    <tspan x="530.859416" y="134.374705">ORIGAMI PANTS</tspan>
                </text>
                <text id="PRINTING" sketch:type="MSTextLayer" font-family="Helvetica Neue" font-size="10.9565217" font-weight="420" fill="#E0E1E3">
                    <tspan x="516.737401" y="271.243519">PRINTING</tspan>
                </text>
                <rect id="Rectangle-81" fill="#E0E1E3" sketch:type="MSShapeGroup" x="589.27321" y="267.954438" width="2.56763926" height="19.9198743"></rect>
                <rect id="Rectangle-82" fill="#E0E1E3" sketch:type="MSShapeGroup" x="638.058355" y="455.586803" width="2.56763926" height="39.197172"></rect>
                <text id="COLLAB-PODS" sketch:type="MSTextLayer" font-family="Helvetica Neue" font-size="10.9565217" font-weight="420" fill="#E0E1E3">
                    <tspan x="104.6313" y="465.30165">COLLAB PODS</tspan>
                </text>
                <text id="ROOF" sketch:type="MSTextLayer" font-family="Helvetica Neue" font-size="11.3478261" font-weight="420" sketch:alignment="middle" fill="#E0E1E3">
                    <tspan x="128.12534" y="375.983504">ROOF</tspan>
                    <tspan x="121.203166" y="388.983504">ACCESS</tspan>
                </text>
                <g id="Bathroom-Men" transform="translate(601.469496, 280.163394)" sketch:type="MSShapeGroup">
                    <ellipse id="Oval-23" fill="#0F98EC" cx="9.30769231" cy="9.31736057" rx="9.30769231" ry="9.31736057"></ellipse>
                    <path d="M7.55635965,7.31993832 C7.20609311,7.69215502 6.85582657,10.0399837 7.20609311,10.3835683 C7.36937972,10.54374 7.60878697,10.6292431 7.81785752,10.6400777 L7.90662618,10.6400777 C7.90662618,10.6400777 7.91314131,10.9837849 7.90662618,10.984031 L7.90662618,13.819415 C7.90662619,13.819415 7.94083189,14.1044535 8.44656341,14.1343677 C8.95229492,14.1642819 8.95229493,13.8946857 8.95229493,13.8946857 L9.13122957,12.4728909 L9.31299016,11.1128338 L9.48415504,12.4728909 L9.66308969,13.8946857 C9.66308969,13.8946857 9.6630897,14.1642819 10.1688212,14.1343677 C10.6745527,14.1044535 10.7087584,13.819415 10.7087584,13.819415 L10.7087584,10.9840315 C10.7022433,10.9837849 10.7087584,10.6400777 10.7087584,10.6400777 L10.7975271,10.6400777 C11.0065976,10.6292431 11.2460049,10.54374 11.4092915,10.3835683 C11.759558,10.0399837 11.4092915,7.69215502 11.059025,7.31993832 C10.9632018,7.21811015 10.8466211,7.14521079 10.7278119,7.09303298 C10.3537992,7.4295223 9.85519538,7.63489093 9.30769231,7.63489093 C8.75841713,7.63489093 8.25835827,7.42819072 7.88394496,7.08976152 C7.7691226,7.14215087 7.65420235,7.21596409 7.55635965,7.31993832 Z M9.30769231,3.85545954 C8.34045795,3.85545954 7.55635965,4.62459999 7.55635965,5.5733829 C7.55635965,6.52216581 8.34045795,7.29130626 9.30769231,7.29130626 C10.2749267,7.29130626 11.059025,6.52216581 11.059025,5.5733829 C11.059025,4.62459999 10.2749267,3.85545954 9.30769231,3.85545954 Z" id="Oval-14" fill="#FFFFFF"></path>
                </g>
                <g id="Bathroom-Men-2" transform="translate(861.442971, 447.875884)" sketch:type="MSShapeGroup">
                    <ellipse id="Oval-24" fill="#0F98EC" cx="9.30769231" cy="9.31736057" rx="9.30769231" ry="9.31736057"></ellipse>
                    <path d="M7.55635965,7.31993832 C7.20609311,7.69215502 6.85582657,10.0399837 7.20609311,10.3835683 C7.36937972,10.54374 7.60878697,10.6292431 7.81785752,10.6400777 L7.90662618,10.6400777 C7.90662618,10.6400777 7.91314131,10.9837849 7.90662618,10.984031 L7.90662618,13.819415 C7.90662619,13.819415 7.94083189,14.1044535 8.44656341,14.1343677 C8.95229492,14.1642819 8.95229493,13.8946857 8.95229493,13.8946857 L9.13122957,12.4728909 L9.31299016,11.1128338 L9.48415504,12.4728909 L9.66308969,13.8946857 C9.66308969,13.8946857 9.6630897,14.1642819 10.1688212,14.1343677 C10.6745527,14.1044535 10.7087584,13.819415 10.7087584,13.819415 L10.7087584,10.9840315 C10.7022433,10.9837849 10.7087584,10.6400777 10.7087584,10.6400777 L10.7975271,10.6400777 C11.0065976,10.6292431 11.2460049,10.54374 11.4092915,10.3835683 C11.759558,10.0399837 11.4092915,7.69215502 11.059025,7.31993832 C10.9632018,7.21811015 10.8466211,7.14521079 10.7278119,7.09303298 C10.3537992,7.4295223 9.85519538,7.63489093 9.30769231,7.63489093 C8.75841713,7.63489093 8.25835827,7.42819072 7.88394496,7.08976152 C7.7691226,7.14215087 7.65420235,7.21596409 7.55635965,7.31993832 Z M9.30769231,3.85545954 C8.34045795,3.85545954 7.55635965,4.62459999 7.55635965,5.5733829 C7.55635965,6.52216581 8.34045795,7.29130626 9.30769231,7.29130626 C10.2749267,7.29130626 11.059025,6.52216581 11.059025,5.5733829 C11.059025,4.62459999 10.2749267,3.85545954 9.30769231,3.85545954 Z" id="Oval-14" fill="#FFFFFF"></path>
                </g>
                <g id="Triangle-1-+-Oval-14" transform="translate(648.328912, 444.020424)" sketch:type="MSShapeGroup">
                    <polygon id="Triangle-1" fill="#0F98EC" points="11.8753316 0 23.8051646 20.3287867 -0.0545014588 20.3287867 "></polygon>
                    <path d="M10.4069113,14.4955373 L10.3854968,14.4955373 C10.1764262,14.4847026 9.93701897,14.3991995 9.77373237,14.2390278 C9.42346582,13.8954432 9.77373237,11.5476146 10.1239989,11.1753979 C10.2218416,11.0714236 10.3367619,10.9976104 10.4515842,10.9452211 C10.8259975,11.2836503 11.3260564,11.4903505 11.8753316,11.4903505 C12.4228346,11.4903505 12.9214384,11.2849818 13.2954511,10.9484925 C13.4142604,11.0006703 13.530841,11.0735697 13.6266642,11.1753979 C13.9769308,11.5476146 14.3271973,13.8954432 13.9769308,14.2390278 C13.8136442,14.3991995 13.5742369,14.4847026 13.3651664,14.4955373 L13.3437519,14.4955373 L13.6883199,15.0320887 C14.1777587,15.7942288 13.9780703,16.4374751 13.2763977,16.6403768 L13.2763977,17.6748746 C13.2763977,17.6748746 13.242192,17.959913 12.7364605,17.9898273 C12.230729,18.0197414 12.2307289,17.7501453 12.2307289,17.7501453 L12.0994467,16.7069914 L11.6512164,16.7069914 L11.5199342,17.7501453 C11.5199342,17.7501453 11.5199342,18.0197414 11.0142027,17.9898273 C10.5084712,17.959913 10.4742654,17.6748746 10.4742654,17.6748746 L10.4742654,16.6406541 C9.76987684,16.4376789 9.57408147,15.792396 10.0623433,15.0320887 L10.4069113,14.4955373 Z M11.8753316,7.71091909 C10.9080972,7.71091909 10.1239989,8.48005954 10.1239989,9.42884245 C10.1239989,10.3776254 10.9080972,11.1467658 11.8753316,11.1467658 C12.8425659,11.1467658 13.6266642,10.3776254 13.6266642,9.42884245 C13.6266642,8.48005954 12.8425659,7.71091909 11.8753316,7.71091909 Z" id="Oval-14" fill="#FFFFFF"></path>
                </g>
                <g id="Triangle-1-+-Oval-15" transform="translate(816.509284, 274.380204)" sketch:type="MSShapeGroup">
                    <polygon id="Triangle-1" fill="#0F98EC" points="11.8753316 0 23.8051646 20.3287867 -0.0545014588 20.3287867 "></polygon>
                    <path d="M10.4069113,14.4955373 L10.3854968,14.4955373 C10.1764262,14.4847026 9.93701897,14.3991995 9.77373237,14.2390278 C9.42346582,13.8954432 9.77373237,11.5476146 10.1239989,11.1753979 C10.2218416,11.0714236 10.3367619,10.9976104 10.4515842,10.9452211 C10.8259975,11.2836503 11.3260564,11.4903505 11.8753316,11.4903505 C12.4228346,11.4903505 12.9214384,11.2849818 13.2954511,10.9484925 C13.4142604,11.0006703 13.530841,11.0735697 13.6266642,11.1753979 C13.9769308,11.5476146 14.3271973,13.8954432 13.9769308,14.2390278 C13.8136442,14.3991995 13.5742369,14.4847026 13.3651664,14.4955373 L13.3437519,14.4955373 L13.6883199,15.0320887 C14.1777587,15.7942288 13.9780703,16.4374751 13.2763977,16.6403768 L13.2763977,17.6748746 C13.2763977,17.6748746 13.242192,17.959913 12.7364605,17.9898273 C12.230729,18.0197414 12.2307289,17.7501453 12.2307289,17.7501453 L12.0994467,16.7069914 L11.6512164,16.7069914 L11.5199342,17.7501453 C11.5199342,17.7501453 11.5199342,18.0197414 11.0142027,17.9898273 C10.5084712,17.959913 10.4742654,17.6748746 10.4742654,17.6748746 L10.4742654,16.6406541 C9.76987684,16.4376789 9.57408147,15.792396 10.0623433,15.0320887 L10.4069113,14.4955373 Z M11.8753316,7.71091909 C10.9080972,7.71091909 10.1239989,8.48005954 10.1239989,9.42884245 C10.1239989,10.3776254 10.9080972,11.1467658 11.8753316,11.1467658 C12.8425659,11.1467658 13.6266642,10.3776254 13.6266642,9.42884245 C13.6266642,8.48005954 12.8425659,7.71091909 11.8753316,7.71091909 Z" id="Oval-14" fill="#FFFFFF"></path>
                </g>
                <g id="Rectangle-31">
                    <use stroke="none" fill="#FFFFFF" fill-rule="evenodd" sketch:type="MSShapeGroup" xlink:href="#path-3"></use>
                    <use stroke="none" fill="none" xlink:href="#path-3"></use>
                    <use stroke="#E0E1E3" stroke-width="4" fill="none" xlink:href="#path-3"></use>
                </g>
                <g id="Rectangle-32">
                    <use stroke="none" fill="#FFFFFF" fill-rule="evenodd" sketch:type="MSShapeGroup" xlink:href="#path-4"></use>
                    <use stroke="none" fill="none" xlink:href="#path-4"></use>
                    <use stroke="#E0E1E3" stroke-width="4" fill="none" xlink:href="#path-4"></use>
                </g>
                <g id="Rectangle-33">
                    <use stroke="none" fill="#FFFFFF" fill-rule="evenodd" sketch:type="MSShapeGroup" xlink:href="#path-5"></use>
                    <use stroke="none" fill="none" xlink:href="#path-5"></use>
                    <use stroke="#E0E1E3" stroke-width="4" fill="none" xlink:href="#path-5"></use>
                </g>
                <g id="Rectangle-42">
                    <use stroke="none" fill="#FFFFFF" fill-rule="evenodd" sketch:type="MSShapeGroup" xlink:href="#path-6"></use>
                    <use stroke="none" fill="none" xlink:href="#path-6"></use>
                    <use stroke="#E0E1E3" stroke-width="4" fill="none" xlink:href="#path-6"></use>
                </g>
                <g id="Rectangle-43">
                    <use stroke="none" fill="#FFFFFF" fill-rule="evenodd" sketch:type="MSShapeGroup" xlink:href="#path-7"></use>
                    <use stroke="none" fill="none" xlink:href="#path-7"></use>
                    <use stroke="#E0E1E3" stroke-width="4" fill="none" xlink:href="#path-7"></use>
                </g>
                <g id="Rectangle-16">
                    <use stroke="none" fill="#F7E0DF" fill-rule="evenodd" sketch:type="MSShapeGroup" xlink:href="#path-8"></use>
                    <use stroke="none" fill="none" xlink:href="#path-8"></use>
                    <use stroke="#D4A39D" stroke-width="4" fill="none" xlink:href="#path-8"></use>
                </g>
                <g id="Rectangle-19">
                    <use stroke="none" fill="#F7E0DF" fill-rule="evenodd" sketch:type="MSShapeGroup" xlink:href="#path-9"></use>
                    <use stroke="none" fill="none" xlink:href="#path-9"></use>
                    <use stroke="#D4A39D" stroke-width="4" fill="none" xlink:href="#path-9"></use>
                </g>
                <g id="Rectangle-20">
                    <use stroke="none" fill="#F7E0DF" fill-rule="evenodd" sketch:type="MSShapeGroup" xlink:href="#path-10"></use>
                    <use stroke="none" fill="none" xlink:href="#path-10"></use>
                    <use stroke="#D4A39D" stroke-width="4" fill="none" xlink:href="#path-10"></use>
                </g>
                <g id="Rectangle-13">
                    <use stroke="none" fill="#FFFFFF" fill-rule="evenodd" sketch:type="MSShapeGroup" xlink:href="#path-11"></use>
                    <use stroke="none" fill="none" xlink:href="#path-11"></use>
                    <use stroke="#E0E1E3" stroke-width="4" fill="none" xlink:href="#path-11"></use>
                </g>
                <g id="Rectangle-21">
                    <use stroke="none" fill="#F7E0DF" fill-rule="evenodd" sketch:type="MSShapeGroup" xlink:href="#path-12"></use>
                    <use stroke="none" fill="none" xlink:href="#path-12"></use>
                    <use stroke="#D4A39D" stroke-width="4" fill="none" xlink:href="#path-12"></use>
                </g>
                <g id="Rectangle-17">
                    <use stroke="none" fill="#F7E0DF" fill-rule="evenodd" sketch:type="MSShapeGroup" xlink:href="#path-13"></use>
                    <use stroke="none" fill="none" xlink:href="#path-13"></use>
                    <use stroke="#D4A39D" stroke-width="4" fill="none" xlink:href="#path-13"></use>
                </g>
                <g id="Rectangle-39">
                    <use stroke="none" fill="#FFFFFF" fill-rule="evenodd" sketch:type="MSShapeGroup" xlink:href="#path-14"></use>
                    <use stroke="none" fill="none" xlink:href="#path-14"></use>
                    <use stroke="#E0E1E3" stroke-width="4" fill="none" xlink:href="#path-14"></use>
                </g>
                <g id="Rectangle-40">
                    <use stroke="none" fill="#FFFFFF" fill-rule="evenodd" sketch:type="MSShapeGroup" xlink:href="#path-15"></use>
                    <use stroke="none" fill="none" xlink:href="#path-15"></use>
                    <use stroke="#E0E1E3" stroke-width="4" fill="none" xlink:href="#path-15"></use>
                </g>
                <path d="M813.299735,672.77769 L813.299735,730.609584 L860.644343,730.609584 C862.857998,730.609584 863.458734,729.26518 861.999707,727.62207 L813.299735,672.77769 Z" id="Rectangle-41" stroke="#E0E1E3" stroke-width="4" stroke-linecap="round" stroke-linejoin="round" fill="#FFFFFF" sketch:type="MSShapeGroup"></path>
                <g id="Rectangle-18">
                    <use stroke="none" fill="#F7E0DF" fill-rule="evenodd" sketch:type="MSShapeGroup" xlink:href="#path-16"></use>
                    <use stroke="none" fill="none" xlink:href="#path-16"></use>
                    <use stroke="#D4A39D" stroke-width="4" fill="none" xlink:href="#path-16"></use>
                </g>
                <g id="Rectangle-9">
                    <use stroke="none" fill="#FFFFFF" fill-rule="evenodd" sketch:type="MSShapeGroup" xlink:href="#path-17"></use>
                    <use stroke="#E0E1E3" stroke-width="4" fill="none" xlink:href="#path-17"></use>
                    <use stroke="none" fill="none" xlink:href="#path-17"></use>
                </g>
                <g id="Rectangle-10">
                    <use stroke="none" fill="#F7E0DF" fill-rule="evenodd" sketch:type="MSShapeGroup" xlink:href="#path-18"></use>
                    <use stroke="none" fill="none" xlink:href="#path-18"></use>
                    <use stroke="#D4A39D" stroke-width="4" fill="none" xlink:href="#path-18"></use>
                </g>
                <g id="Rectangle-24">
                    <use stroke="none" fill="#F7E0DF" fill-rule="evenodd" sketch:type="MSShapeGroup" xlink:href="#path-19"></use>
                    <use stroke="none" fill="none" xlink:href="#path-19"></use>
                    <use stroke="#D4A39D" stroke-width="4" fill="none" xlink:href="#path-19"></use>
                </g>
                <g id="Rectangle-25">
                    <use stroke="none" fill="#F7E0DF" fill-rule="evenodd" sketch:type="MSShapeGroup" xlink:href="#path-20"></use>
                    <use stroke="none" fill="none" xlink:href="#path-20"></use>
                    <use stroke="#D4A39D" stroke-width="4" fill="none" xlink:href="#path-20"></use>
                </g>
                <g id="Rectangle-11">
                    <use stroke="none" fill="#F7E0DF" fill-rule="evenodd" sketch:type="MSShapeGroup" xlink:href="#path-21"></use>
                    <use stroke="none" fill="none" xlink:href="#path-21"></use>
                    <use stroke="#D4A39D" stroke-width="4" fill="none" xlink:href="#path-21"></use>
                </g>
                <g id="Rectangle-22">
                    <use stroke="none" fill="#F7E0DF" fill-rule="evenodd" sketch:type="MSShapeGroup" xlink:href="#path-22"></use>
                    <use stroke="none" fill="none" xlink:href="#path-22"></use>
                    <use stroke="#D4A39D" stroke-width="4" fill="none" xlink:href="#path-22"></use>
                </g>
                <g id="Rectangle-23">
                    <use stroke="none" fill="#F7E0DF" fill-rule="evenodd" sketch:type="MSShapeGroup" xlink:href="#path-23"></use>
                    <use stroke="none" fill="none" xlink:href="#path-23"></use>
                    <use stroke="#D4A39D" stroke-width="4" fill="none" xlink:href="#path-23"></use>
                </g>
                <text id="GAME" sketch:type="MSTextLayer" font-family="Helvetica Neue" font-size="11.3478261" font-weight="420" sketch:alignment="middle" fill="#E0E1E3">
                    <tspan x="32.3964269" y="368.272584">GAME</tspan>
                    <tspan x="31.4432095" y="381.272584">ROOM</tspan>
                </text>
                <g id="Rectangle-30">
                    <use stroke="none" fill="#F7E0DF" fill-rule="evenodd" sketch:type="MSShapeGroup" xlink:href="#path-24"></use>
                    <use stroke="none" fill="none" xlink:href="#path-24"></use>
                    <use stroke="#D4A39D" stroke-width="4" fill="none" xlink:href="#path-24"></use>
                </g>
                <g id="Rectangle-29">
                    <use stroke="none" fill="#F7E0DF" fill-rule="evenodd" sketch:type="MSShapeGroup" xlink:href="#path-25"></use>
                    <use stroke="none" fill="none" xlink:href="#path-25"></use>
                    <use stroke="#D4A39D" stroke-width="4" fill="none" xlink:href="#path-25"></use>
                </g>
                <g id="Rectangle-26">
                    <use stroke="none" fill="#FFFFFF" fill-rule="evenodd" sketch:type="MSShapeGroup" xlink:href="#path-26"></use>
                    <use stroke="none" fill="none" xlink:href="#path-26"></use>
                    <use stroke="#E0E1E3" stroke-width="4" fill="none" xlink:href="#path-26"></use>
                </g>
                <g id="Rectangle-34">
                    <use stroke="none" fill="#FFFFFF" fill-rule="evenodd" sketch:type="MSShapeGroup" xlink:href="#path-27"></use>
                    <use stroke="none" fill="none" xlink:href="#path-27"></use>
                    <use stroke="#E0E1E3" stroke-width="4" fill="none" xlink:href="#path-27"></use>
                </g>
                <g id="Rectangle-35">
                    <use stroke="none" fill="#FFFFFF" fill-rule="evenodd" sketch:type="MSShapeGroup" xlink:href="#path-28"></use>
                    <use stroke="none" fill="none" xlink:href="#path-28"></use>
                    <use stroke="#E0E1E3" stroke-width="4" fill="none" xlink:href="#path-28"></use>
                </g>
                <g id="Rectangle-37">
                    <use stroke="none" fill="#FFFFFF" fill-rule="evenodd" sketch:type="MSShapeGroup" xlink:href="#path-29"></use>
                    <use stroke="none" fill="none" xlink:href="#path-29"></use>
                    <use stroke="#E0E1E3" stroke-width="4" fill="none" xlink:href="#path-29"></use>
                </g>
                <g id="Rectangle-38">
                    <use stroke="none" fill="#FFFFFF" fill-rule="evenodd" sketch:type="MSShapeGroup" xlink:href="#path-30"></use>
                    <use stroke="none" fill="none" xlink:href="#path-30"></use>
                    <use stroke="#E0E1E3" stroke-width="4" fill="none" xlink:href="#path-30"></use>
                </g>
                <g id="Rectangle-36">
                    <use stroke="none" fill="#FFFFFF" fill-rule="evenodd" sketch:type="MSShapeGroup" xlink:href="#path-31"></use>
                    <use stroke="none" fill="none" xlink:href="#path-31"></use>
                    <use stroke="#E0E1E3" stroke-width="4" fill="none" xlink:href="#path-31"></use>
                </g>
                <g id="Rectangle-27">
                    <use stroke="none" fill="#FFFFFF" fill-rule="evenodd" sketch:type="MSShapeGroup" xlink:href="#path-32"></use>
                    <use stroke="none" fill="none" xlink:href="#path-32"></use>
                    <use stroke="#E0E1E3" stroke-width="4" fill="none" xlink:href="#path-32"></use>
                </g>
                <g id="Rectangle-28">
                    <use stroke="none" fill="#FFFFFF" fill-rule="evenodd" sketch:type="MSShapeGroup" xlink:href="#path-33"></use>
                    <use stroke="none" fill="none" xlink:href="#path-33"></use>
                    <use stroke="#E0E1E3" stroke-width="4" fill="none" xlink:href="#path-33"></use>
                </g>
                <g id="Rectangle-45">
                    <use stroke="none" fill="#FFFFFF" fill-rule="evenodd" sketch:type="MSShapeGroup" xlink:href="#path-34"></use>
                    <use stroke="none" fill="none" xlink:href="#path-34"></use>
                    <use stroke="#E0E1E3" stroke-width="4" fill="none" xlink:href="#path-34"></use>
                </g>
                <g id="Rectangle-12">
                    <use stroke="none" fill="#F7E0DF" fill-rule="evenodd" sketch:type="MSShapeGroup" xlink:href="#path-35"></use>
                    <use stroke="none" fill="none" xlink:href="#path-35"></use>
                    <use stroke="#D4A39D" stroke-width="4" fill="none" xlink:href="#path-35"></use>
                </g>
                <g id="Rectangle-14">
                    <use stroke="none" fill="#F7E0DF" fill-rule="evenodd" sketch:type="MSShapeGroup" xlink:href="#path-36"></use>
                    <use stroke="none" fill="none" xlink:href="#path-36"></use>
                    <use stroke="#D4A39D" stroke-width="4" fill="none" xlink:href="#path-36"></use>
                </g>
                <g id="Rectangle-15">
                    <use stroke="none" fill="#F7E0DF" fill-rule="evenodd" sketch:type="MSShapeGroup" xlink:href="#path-37"></use>
                    <use stroke="none" fill="none" xlink:href="#path-37"></use>
                    <use stroke="#D4A39D" stroke-width="4" fill="none" xlink:href="#path-37"></use>
                </g>
            </g>
        </g>
    </g>
</svg>